<?xml version="1.0" encoding="UTF-8"?><svg id="Layer_2" xmlns="http://www.w3.org/2000/svg" viewBox="0 0 1331.69 290"><defs><style>.cls-1{fill:#fff;}.cls-2{fill:#57e8fc;}</style></defs><g id="Layer_1-2"><g><path class="cls-1" d="M987.9,140.32c29.08,0,56.42,.43,83.73-.21,11.98-.28,19.66-6.29,20.62-16.53,1.28-13.69,.32-27.55,.32-41.6-27.62,0-55.21-.39-82.73,.21-10.06,.21-18.27,5.62-19.41,15.07-1.67,14.15-1.74,28.48-2.52,43.05Zm-27.94,25.85c-.32-1.07-.82-1.99-.82-2.88,.07-19.27-.75-38.57,.57-57.77,2.1-30.4,21.86-48.28,55.96-49.45,34.7-1.17,69.47-.32,104.24-.32,.75,0,1.49,.39,3.16,.89v18.67c-.04,12.94,.28,25.88-.21,38.79-1.21,31.39-18.1,49.63-52.9,51.62-36.48,2.06-73.2,.46-110,.46Z"/><path class="cls-1" d="M1184.86,84.43v81.56h-28.51V55.85c12.87-.18,25.28-.96,37.72,3.88,35.3,13.72,64.32,34.81,90.7,59.23,2.81,2.6,5.62,5.23,9.71,9.07V56.2h28.05v110.32c-9.31,0-18.77,.32-28.19-.21-2.28-.14-4.76-2.84-6.47-4.84-17.14-20.05-34.95-39.61-57.67-54.79-11.48-7.68-24.64-13.37-37.15-19.8-2.28-1.17-5.05-1.53-8.18-2.45Z"/><path class="cls-1" d="M418.09,124.64v41.45h-29.01V55.99h28.8v43.2h96.92V56.02h29.05v110.04h-28.51v-41.42h-97.24Z"/><path class="cls-1" d="M152.61,289.93v-34.66c42.73,.39,78.25-14.19,104.67-46.08,14.68-17.74,21.51-37.9,21.37-60.01-.28-46.04-28.37-87.85-51.09-92.22v77.51H89.68v-48.46c-.6-.21-1.24-.43-1.85-.68-3.84,3.09-7.71,6.15-11.55,9.24-.53-.18-1.07-.32-1.6-.5,.68-2.81,.64-6.04,2.17-8.39,11.52-17.63,29.4-26.38,52.16-31.04,0,11.91,.07,22.75,0,33.6-.07,10.7,.46,11.31,11.8,11.31h44.73V.67c47.25,6.44,83.48,28.34,108.19,64.71,35.91,52.94,35.52,107.65-.78,160.02-31.86,46.04-79.92,65.99-140.33,64.53Z"/><path class="cls-1" d="M132.71,249.86v38.79c-52.19-8.82-90.73-34.38-113.98-77.29C-11,156.57-5.2,103.1,35.18,54.71,67.96,15.42,112.97-1.93,167.55,.17V34.41c-39.96-.64-74.02,11.34-100.22,39.96-15.82,17.31-25.85,36.83-26.2,59.8-.71,48,16.99,101.54,91.58,115.69Z"/><path class="cls-1" d="M133.1,189.56c0,15.32-.28,29.44,.14,43.52,.18,6.08-2.03,8.92-8.53,7.86-6.44-1.03-13.12-1.81-19.02-4.16-8.67-3.45-13.83-9.07-13.4-19.2,.85-20.41,.25-40.89,.25-61.93H229.66v51.52c5.65-4.55,9.78-7.89,14.33-11.59-2.06,17.46-28.05,36.23-53.12,38.18,0-8.96-.11-17.81,.04-26.7,.32-21.76-1.42-17.21-18.74-17.49-12.62-.18-25.24,0-39.07,0Z"/><path class="cls-1" d="M855,81.87c-9.92,0-18.91-.68-27.77,.18-9.74,.96-13.58,8.03-15.75,15.71h-26.38c-.53-20.55,14.47-37.05,36.87-40.64,5.08-.82,10.31-1.42,15.47-1.46,32.82-.14,65.67-.07,98.48-.07,1.6,0,3.16,.14,5.23,.25v25.53h-56.67v84.76h-29.51c.04-28.02,.04-55.89,.04-84.26Z"/><path class="cls-1" d="M641.75,166.56V56.2h29.01v83.51c1.99,.43,3.24,.92,4.52,.92,21.62,0,43.27,.11,64.88-.11,10.84-.11,19.48-4.12,24.99-12.91,.89-1.42,2.99-3.13,4.62-3.16,8.96-.32,17.95-.14,27.02-.14-3.45,22.43-19.98,37.61-44.23,40.85-6.72,.89-13.62,1.35-20.41,1.39-29.86,.11-59.69,0-90.41,0Z"/><path class="cls-1" d="M579.68,55.92h28.19v110.14h-28.19V55.92Z"/><path class="cls-1" d="M432.66,245.77c-5.69,1.6-12.76,2.38-21.26,2.38-10.95,0-19.7-1.85-26.27-5.58-6.58-3.73-9.88-8.6-9.88-14.68,0-6.51,3.7-11.77,11.09-15.79,7.4-4.02,16.78-6.01,28.16-6.01,7.29,0,13.33,.57,18.13,1.67v5.08c-5.51-1.64-11.59-2.45-18.24-2.45-8.82,0-16,1.56-21.47,4.69s-8.25,7.29-8.25,12.51,2.56,8.92,7.71,11.84c5.16,2.92,11.87,4.41,20.19,4.41,7.71,0,14.4-.92,20.05-2.74v4.66h.04Z"/><path class="cls-1" d="M486.78,231.76l-12.09-17.35c-.39-.57-.78-1.49-1.17-2.74h-.21c-.36,1.17-.78,2.06-1.24,2.74l-11.95,17.35h26.66Zm21.08,15.68h-9.99l-8.14-11.41h-32.6l-7.68,11.41h-10.03l29.51-40.71h9.31l29.62,40.71Z"/><path class="cls-1" d="M528.2,211.07v14.75h12.23c2.24,0,4.34-.18,6.26-.53s3.56-.89,4.98-1.56c1.39-.68,2.49-1.49,3.27-2.45,.78-.96,1.17-2.06,1.17-3.27,0-2.17-1.35-3.88-3.98-5.08-2.67-1.21-6.51-1.81-11.55-1.81h-12.37v-.04Zm46.15,36.37h-10.74l-12.87-11.41c-1.17-1.07-2.31-1.96-3.45-2.7-1.1-.75-2.24-1.35-3.41-1.81-1.17-.46-2.42-.82-3.77-1.03-1.35-.21-2.84-.32-4.52-.32h-7.4v17.31h-8.99v-40.71h22.97c3.38,0,6.47,.21,9.31,.68,2.84,.46,5.3,1.14,7.4,2.03,2.1,.92,3.73,2.03,4.91,3.41,1.17,1.39,1.78,2.95,1.78,4.76,0,1.42-.39,2.7-1.21,3.91-.82,1.17-1.96,2.24-3.41,3.16-1.49,.92-3.27,1.71-5.37,2.38-2.1,.64-4.44,1.17-7.04,1.53v.04c1.28,.28,2.42,.64,3.34,1.03,.96,.39,1.85,.85,2.7,1.39,.85,.53,1.71,1.14,2.56,1.81,.85,.68,1.78,1.46,2.81,2.35l14.4,12.19Z"/><path class="cls-1" d="M611.39,245.8v-5.62c1.21,.57,2.67,1.07,4.37,1.53,1.71,.46,3.48,.85,5.37,1.14,1.88,.28,3.77,.57,5.65,.71,1.88,.14,3.66,.25,5.26,.25,5.55,0,9.67-.53,12.41-1.64,2.74-1.1,4.09-2.67,4.09-4.69,0-1.1-.46-2.06-1.35-2.88-.92-.82-2.17-1.56-3.77-2.24-1.6-.68-3.52-1.32-5.72-1.92-2.2-.6-4.59-1.28-7.11-1.96-2.67-.71-5.19-1.46-7.5-2.17-2.31-.75-4.34-1.56-6.08-2.45-1.71-.89-3.06-1.88-4.05-3.02s-1.49-2.45-1.49-3.95c0-1.85,.78-3.48,2.31-4.84,1.53-1.35,3.56-2.49,6.08-3.38,2.49-.89,5.37-1.56,8.57-1.99s6.47-.64,9.78-.64c7.57,0,13.12,.5,16.57,1.46v5.37c-4.55-1.67-10.38-2.49-17.49-2.49-1.96,0-3.95,.11-5.9,.32-1.96,.21-3.73,.57-5.26,1.07-1.53,.5-2.77,1.14-3.77,1.92s-1.46,1.71-1.46,2.84c0,1.03,.36,1.96,1.1,2.7,.75,.75,1.81,1.46,3.24,2.06,1.42,.6,3.16,1.24,5.23,1.81,2.06,.6,4.41,1.24,7.11,1.92,2.74,.71,5.37,1.49,7.82,2.28,2.45,.78,4.62,1.67,6.51,2.63,1.88,.96,3.34,2.03,4.44,3.2,1.1,1.17,1.64,2.52,1.64,4.02,0,1.99-.75,3.7-2.24,5.08-1.49,1.39-3.48,2.52-6.01,3.38-2.52,.89-5.44,1.49-8.71,1.88-3.31,.39-6.76,.57-10.42,.57-1.21,0-2.7-.07-4.52-.14-1.78-.11-3.63-.25-5.48-.46-1.85-.21-3.63-.43-5.3-.75-1.56-.25-2.88-.57-3.91-.92Z"/><path class="cls-1" d="M729.64,230.98c0,11.45-9.74,17.14-29.22,17.14s-28.02-5.51-28.02-16.5v-24.89h8.99v24.6c0,8.35,6.65,12.51,19.95,12.51s19.27-4.02,19.27-12.09v-25.03h8.99v24.25h.04Z"/><path class="cls-1" d="M757.87,211.07v16.71h9.46c6.22,0,10.95-.75,14.26-2.24,3.27-1.49,4.91-3.63,4.91-6.36,0-5.37-6.01-8.07-18.03-8.07h-10.59v-.04Zm0,21.01v15.39h-8.99v-40.71h21.12c8.21,0,14.61,1.07,19.13,3.16,4.52,2.13,6.79,5.12,6.79,8.96s-2.52,7.04-7.54,9.49c-5.01,2.45-11.8,3.7-20.37,3.7h-10.13Z"/><polygon class="cls-1" points="851.12 247.44 810.34 247.44 810.34 206.73 849.38 206.73 849.38 211.03 819.34 211.03 819.34 224.58 847.14 224.58 847.14 228.88 819.34 228.88 819.34 243.14 851.09 243.14 851.09 247.44 851.12 247.44"/><path class="cls-1" d="M874.94,211.07v14.75h12.23c2.24,0,4.34-.18,6.26-.53s3.56-.89,4.98-1.56c1.39-.68,2.49-1.49,3.27-2.45,.78-.96,1.17-2.06,1.17-3.27,0-2.17-1.35-3.88-3.98-5.08-2.67-1.21-6.51-1.81-11.55-1.81h-12.37v-.04Zm46.15,36.37h-10.74l-12.87-11.41c-1.17-1.07-2.31-1.96-3.45-2.7-1.1-.75-2.24-1.35-3.41-1.81-1.17-.46-2.42-.82-3.77-1.03s-2.84-.32-4.52-.32h-7.39v17.31h-8.99v-40.71h22.97c3.38,0,6.47,.21,9.31,.68,2.84,.46,5.3,1.14,7.39,2.03,2.1,.92,3.73,2.03,4.91,3.41,1.17,1.39,1.78,2.95,1.78,4.76,0,1.42-.39,2.7-1.21,3.91-.82,1.17-1.96,2.24-3.41,3.16-1.49,.92-3.27,1.71-5.37,2.38-2.1,.64-4.44,1.17-7.04,1.53v.04c1.28,.28,2.42,.64,3.34,1.03,.96,.39,1.85,.85,2.7,1.39,.85,.53,1.71,1.14,2.56,1.81,.85,.68,1.78,1.46,2.81,2.35l14.4,12.19Z"/><path class="cls-1" d="M1010.08,247.44h-8.96v-27.3c0-2.17,.25-4.8,.75-7.93h-.21c-.85,1.85-1.64,3.16-2.31,3.95l-26.27,31.29h-4.41l-26.24-31.07c-.75-.92-1.53-2.31-2.31-4.16h-.21c.28,1.64,.43,4.3,.43,7.96v27.27h-8.67v-40.71h11.91l23.61,28.41c1.81,2.17,2.99,3.8,3.56,4.87h.32c1.53-2.24,2.77-3.91,3.7-5.01l24.07-28.3h11.27v40.74Z"/><path class="cls-1" d="M1068.78,231.76l-12.09-17.35c-.39-.57-.78-1.49-1.17-2.74h-.21c-.36,1.17-.78,2.06-1.24,2.74l-11.95,17.35h26.66Zm21.08,15.68h-9.99l-8.14-11.41h-32.6l-7.68,11.41h-10.03l29.51-40.71h9.31l29.62,40.71Z"/><path class="cls-1" d="M1110.19,211.07v14.75h12.23c2.24,0,4.34-.18,6.26-.53,1.92-.36,3.56-.89,4.98-1.56,1.39-.68,2.49-1.49,3.27-2.45,.78-.96,1.17-2.06,1.17-3.27,0-2.17-1.35-3.88-3.98-5.08-2.67-1.21-6.51-1.81-11.55-1.81h-12.37v-.04Zm46.11,36.37h-10.74l-12.87-11.41c-1.17-1.07-2.31-1.96-3.45-2.7-1.1-.75-2.24-1.35-3.41-1.81-1.17-.46-2.42-.82-3.77-1.03-1.35-.21-2.84-.32-4.52-.32h-7.4v17.31h-8.99v-40.71h22.97c3.38,0,6.47,.21,9.31,.68,2.84,.46,5.3,1.14,7.39,2.03,2.1,.92,3.73,2.03,4.91,3.41,1.17,1.39,1.78,2.95,1.78,4.76,0,1.42-.39,2.7-1.21,3.91-.82,1.17-1.96,2.24-3.41,3.16-1.49,.92-3.27,1.71-5.37,2.38-2.1,.64-4.44,1.17-7.04,1.53v.04c1.28,.28,2.42,.64,3.34,1.03,.96,.39,1.85,.85,2.7,1.39,.85,.53,1.71,1.14,2.56,1.81,.85,.68,1.78,1.46,2.81,2.35l14.4,12.19Z"/><path class="cls-1" d="M1220.41,247.44h-12.55l-29.72-18.63c-1.1-.71-1.78-1.17-2.03-1.42h-.21v20.05h-8.99v-40.71h8.99v19.13h.21c.5-.43,1.17-.89,2.03-1.39l28.76-17.74h11.2l-32.99,19.55,35.3,21.15Z"/><polygon class="cls-1" points="1271.39 247.44 1230.61 247.44 1230.61 206.73 1269.65 206.73 1269.65 211.03 1239.61 211.03 1239.61 224.58 1267.41 224.58 1267.41 228.88 1239.61 228.88 1239.61 243.14 1271.36 243.14 1271.36 247.44 1271.39 247.44"/><polygon class="cls-1" points="1331.69 211.07 1309.47 211.07 1309.47 247.47 1300.47 247.47 1300.47 211.07 1278.33 211.07 1278.33 206.77 1331.69 206.77 1331.69 211.07"/><path class="cls-2" d="M1166.73,189.5c-84.56,1.34-192.42,2.5-317.94,2.5s-231.33-1.17-315.42-2.5c-9.49,0-17.37-.58-17.37-1.27s7.78-1.3,17.37-1.3c89.35-1.1,196.17-1.92,316.85-1.92s227.16,.82,316.42,1.92c9.49,0,17.37,.58,17.37,1.3s-7.69,1.27-17.27,1.27Z"/></g></g></svg>